<?xml version="1.0" encoding="UTF-8" standalone="no"?>
<!DOCTYPE svg PUBLIC "-//W3C//DTD SVG 1.1//EN" "http://www.w3.org/Graphics/SVG/1.1/DTD/svg11.dtd">
<svg xmlns="http://www.w3.org/2000/svg" version="1.1" viewBox="0.00 0.00 1773.00 1773.00">
<path stroke="#a6acf7" stroke-width="2.00" fill="none" stroke-linecap="butt" vector-effect="non-scaling-stroke" d="
  M 945.94 757.87
  C 946.03 757.89 946.09 757.83 946.13 757.69
  C 946.66 755.94 958.61 715.71 982.00 637.02
  C 982.07 636.77 982.09 636.52 982.08 636.27
  C 981.66 628.79 976.54 622.22 968.50 622.21
  C 854.48 622.14 786.41 622.16 764.30 622.27
  C 752.83 622.32 743.50 626.78 736.31 635.64
  C 731.40 641.68 728.19 652.58 726.72 660.25
  C 695.21 825.67 667.78 969.41 644.42 1091.47
  C 641.85 1104.87 642.21 1118.93 655.42 1126.23
  C 661.63 1129.66 670.46 1129.85 677.50 1129.86
  C 721.16 1129.93 774.15 1129.85 836.48 1129.60
  C 837.13 1129.59 837.65 1130.15 837.59 1130.80
  C 837.15 1135.41 836.40 1140.91 835.35 1147.29
  C 830.00 1179.63 810.79 1296.97 777.72 1499.32
  C 776.33 1507.80 775.28 1515.36 774.57 1521.99
  C 773.63 1530.78 772.82 1538.37 772.13 1544.76
  C 771.74 1548.37 771.98 1550.97 775.73 1551.79
  C 776.07 1551.87 776.43 1551.85 776.77 1551.75
  C 781.09 1550.42 782.96 1548.09 785.26 1544.01
  C 824.53 1474.53 856.82 1416.64 891.35 1356.02
  C 993.32 1177.05 1072.29 1037.90 1128.28 938.57
  C 1135.06 926.55 1132.20 915.43 1116.76 915.45
  C 1082.44 915.48 1010.33 915.38 900.43 915.14
  C 899.89 915.14 899.51 914.62 899.66 914.10
  L 945.86 757.92
  C 945.87 757.89 945.91 757.86 945.94 757.87"
/>
<path fill="#4d59ee" d="
  M 541.90 611.25
  C 542.74 611.33 543.51 610.81 543.77 610.01
  C 556.87 569.12 575.20 530.51 598.77 494.20
  C 620.88 460.14 647.57 430.34 678.83 404.81
  C 735.12 358.85 803.25 329.98 876.25 326.31
  C 916.47 324.28 958.30 329.32 997.40 341.31
  C 1042.41 355.12 1084.10 378.55 1120.39 408.71
  C 1147.98 431.64 1172.39 459.29 1192.66 489.07
  C 1218.38 526.88 1238.30 567.20 1252.43 610.03
  C 1252.48 610.19 1253.94 614.52 1256.79 623.02
  C 1257.03 623.75 1257.73 624.24 1258.50 624.23
  C 1317.62 623.24 1374.81 638.35 1425.10 669.41
  C 1497.81 714.31 1550.98 787.63 1576.15 868.65
  C 1591.84 919.17 1595.00 970.78 1585.64 1023.47
  C 1579.96 1055.44 1569.55 1085.09 1554.42 1112.42
  C 1538.99 1140.28 1519.26 1165.38 1495.22 1187.73
  C 1471.32 1209.94 1443.84 1227.45 1412.79 1240.26
  C 1390.38 1249.51 1366.87 1255.66 1342.26 1258.71
  C 1330.32 1260.19 1317.73 1260.94 1304.50 1260.96
  C 1258.74 1261.03 1213.49 1261.02 1168.75 1260.93
  C 1073.62 1260.73 1014.76 1260.72 992.19 1260.90
  C 989.74 1260.92 989.08 1262.44 987.74 1264.63
  C 937.99 1346.16 883.56 1435.09 824.44 1531.44
  C 816.47 1544.43 807.07 1558.54 790.01 1559.36
  C 784.58 1559.62 779.75 1559.24 775.52 1558.23
  C 767.15 1556.23 764.63 1550.87 765.88 1542.68
  C 783.14 1429.77 797.68 1338.12 809.49 1267.73
  C 809.74 1266.23 810.23 1263.97 810.95 1260.96
  C 811.17 1260.05 810.50 1259.17 809.56 1259.13
  C 808.27 1259.09 800.50 1259.06 786.25 1259.05
  C 626.02 1258.93 532.61 1258.82 487.67 1259.07
  C 473.67 1259.15 459.86 1258.80 446.25 1258.02
  C 437.54 1257.52 428.14 1256.16 418.04 1253.95
  C 373.66 1244.20 332.13 1223.49 297.52 1194.23
  C 242.65 1147.82 204.90 1082.27 191.49 1012.00
  C 184.87 977.32 183.79 942.40 188.25 907.25
  C 196.38 843.16 220.88 783.06 260.73 732.08
  C 293.54 690.11 335.95 656.80 384.74 635.07
  C 394.64 630.66 406.15 626.41 419.28 622.32
  C 446.01 613.99 474.00 609.72 503.25 609.53
  C 515.27 609.45 528.15 610.02 541.90 611.25
  Z
  M 945.94 757.87
  C 946.03 757.89 946.09 757.83 946.13 757.69
  C 946.66 755.94 958.61 715.71 982.00 637.02
  C 982.07 636.77 982.09 636.52 982.08 636.27
  C 981.66 628.79 976.54 622.22 968.50 622.21
  C 854.48 622.14 786.41 622.16 764.30 622.27
  C 752.83 622.32 743.50 626.78 736.31 635.64
  C 731.40 641.68 728.19 652.58 726.72 660.25
  C 695.21 825.67 667.78 969.41 644.42 1091.47
  C 641.85 1104.87 642.21 1118.93 655.42 1126.23
  C 661.63 1129.66 670.46 1129.85 677.50 1129.86
  C 721.16 1129.93 774.15 1129.85 836.48 1129.60
  C 837.13 1129.59 837.65 1130.15 837.59 1130.80
  C 837.15 1135.41 836.40 1140.91 835.35 1147.29
  C 830.00 1179.63 810.79 1296.97 777.72 1499.32
  C 776.33 1507.80 775.28 1515.36 774.57 1521.99
  C 773.63 1530.78 772.82 1538.37 772.13 1544.76
  C 771.74 1548.37 771.98 1550.97 775.73 1551.79
  C 776.07 1551.87 776.43 1551.85 776.77 1551.75
  C 781.09 1550.42 782.96 1548.09 785.26 1544.01
  C 824.53 1474.53 856.82 1416.64 891.35 1356.02
  C 993.32 1177.05 1072.29 1037.90 1128.28 938.57
  C 1135.06 926.55 1132.20 915.43 1116.76 915.45
  C 1082.44 915.48 1010.33 915.38 900.43 915.14
  C 899.89 915.14 899.51 914.62 899.66 914.10
  L 945.86 757.92
  C 945.87 757.89 945.91 757.86 945.94 757.87
  Z"
/>
<path fill="#ffffff" d="
  M 945.86 757.92
  L 899.66 914.10
  C 899.51 914.62 899.89 915.14 900.43 915.14
  C 1010.33 915.38 1082.44 915.48 1116.76 915.45
  C 1132.20 915.43 1135.06 926.55 1128.28 938.57
  C 1072.29 1037.90 993.32 1177.05 891.35 1356.02
  C 856.82 1416.64 824.53 1474.53 785.26 1544.01
  C 782.96 1548.09 781.09 1550.42 776.77 1551.75
  C 776.43 1551.85 776.07 1551.87 775.73 1551.79
  C 771.98 1550.97 771.74 1548.37 772.13 1544.76
  C 772.82 1538.37 773.63 1530.78 774.57 1521.99
  C 775.28 1515.36 776.33 1507.80 777.72 1499.32
  C 810.79 1296.97 830.00 1179.63 835.35 1147.29
  C 836.40 1140.91 837.15 1135.41 837.59 1130.80
  C 837.65 1130.15 837.13 1129.59 836.48 1129.60
  C 774.15 1129.85 721.16 1129.93 677.50 1129.86
  C 670.46 1129.85 661.63 1129.66 655.42 1126.23
  C 642.21 1118.93 641.85 1104.87 644.42 1091.47
  C 667.78 969.41 695.21 825.67 726.72 660.25
  C 728.19 652.58 731.40 641.68 736.31 635.64
  C 743.50 626.78 752.83 622.32 764.30 622.27
  C 786.41 622.16 854.48 622.14 968.50 622.21
  C 976.54 622.22 981.66 628.79 982.08 636.27
  C 982.09 636.52 982.07 636.77 982.00 637.02
  C 958.61 715.71 946.66 755.94 946.13 757.69
  C 946.09 757.83 946.03 757.89 945.94 757.87
  C 945.91 757.86 945.87 757.89 945.86 757.92
  Z"
/>
</svg>
